<svg width="2340" height="1560" viewBox="0 0 2340 1560" fill="none" xmlns="http://www.w3.org/2000/svg">
<rect width="2340" height="1560" fill="white"/>
<rect width="2340" height="1229" fill="#C6CAED"/>
<rect width="1479" height="1229" fill="#ECEDFF"/>
<rect y="1154" width="2340" height="75" fill="#B7BDEF"/>
<path d="M1081.32 1560L1103.98 1229H18.8737L0 1259.67V1261.84L19.4704 1230.19H288.242L130.395 1560H133.021L290.867 1230.19H559.758L446.99 1560H449.568L562.264 1230.19H831.274L763.657 1560H766.044L833.661 1230.19H1102.79L1080.25 1560H1081.32Z" fill="#F7A690"/>
<path d="M2340 1229H1375.38H1104.1L1081.44 1560H1082.64L1105.18 1230.19H1374.19L1396.73 1560H1397.98L1375.38 1229L1398.05 1560H1399.11L1376.57 1230.19H1645.7L1713.32 1560H1715.78L1704.7 1506.01H2011.41L2029.87 1560H2032.38L1919.61 1230.19H2188.5L2340 1546.74V1541.26L2191.12 1230.19H2340V1229Z" fill="#F7A690"/>
<path d="M131.049 1560H0V1229.6H289.197L131.049 1560Z" fill="#FFCDBF"/>
<path d="M447.652 1560H132.362L290.509 1229.6H560.593L447.652 1560Z" fill="#FFCDBF"/>
<path d="M764.254 1560H448.893L561.906 1229.6H831.99L764.254 1560Z" fill="#FFCDBF"/>
<path d="M1080.78 1560H765.448L833.184 1229.6H1103.39L1080.78 1560Z" fill="#FFCDBF"/>
<path d="M1397.39 1560H1081.98L1104.58 1229.6H1374.78L1397.39 1560Z" fill="#FFCDBF"/>
<path d="M1713.92 1560H1398.58L1375.98 1229.6H1646.18L1713.92 1560Z" fill="#FFCDBF"/>
<path d="M2030.47 1560H1715.11L1647.37 1229.6H1917.46L2030.47 1560Z" fill="#FFCDBF"/>
<path d="M2340 1545.37V1560H2031.71L1918.77 1229.6H2188.86L2340 1545.37Z" fill="#FFCDBF"/>
<path d="M2340 1229.6V1542.63L2190.17 1229.6H2340Z" fill="#FFCDBF"/>
<path d="M481.754 1290.17C482.079 1289.46 482.79 1289 483.571 1289H1834.8C1835.54 1289 1836.21 1289.41 1836.56 1290.06L1979.42 1557.06C1980.14 1558.39 1979.17 1560 1977.66 1560H361.118C359.66 1560 358.692 1558.49 359.3 1557.17L481.754 1290.17Z" fill="#7A6991"/>
<path d="M419.091 1531.01L516.764 1313.39H1808.13L1916.66 1531.01H419.091Z" stroke="white" stroke-width="4"/>
<path d="M2283 1250C2283 1259.39 2192.56 1267 2081 1267C1969.44 1267 1879 1259.39 1879 1250C1879 1240.61 1969.44 1233 2081 1233C2192.56 1233 2283 1240.61 2283 1250Z" fill="#FFAD97"/>
<path d="M1906.8 832.4H2252.4V1228C2252.4 1240.15 2242.55 1250 2230.4 1250H1928.8C1916.65 1250 1906.8 1240.15 1906.8 1228V832.4Z" fill="#C08524"/>
<rect width="403.2" height="38.4" rx="10" transform="matrix(1 0 0 -1 1878 832.4)" fill="#DA9E3C"/>
<rect x="1935.6" y="866" width="283.2" height="163.2" rx="6" fill="#EBB459"/>
<rect x="1935.6" y="1053.2" width="283.2" height="163.2" rx="6" fill="#EBB459"/>
<circle cx="2079.6" cy="947.6" r="14.4" fill="white"/>
<circle cx="2079.6" cy="1134.8" r="14.4" fill="white"/>
<path d="M2109.93 675.389C2110.43 671.908 2108.02 668.68 2104.54 668.179V668.179C2101.06 667.679 2097.83 670.095 2097.33 673.576L2088.67 733.805L2101.28 735.618L2109.93 675.389Z" fill="#EC7435"/>
<path d="M2079.87 657.379C2079.87 653.862 2077.02 651.008 2073.5 651.005V651.005C2069.99 651.002 2067.13 653.851 2067.13 657.368L2067.08 718.216L2079.81 718.227L2079.87 657.379Z" fill="#A781B2"/>
<path d="M2103.38 676.233C2103.63 674.493 2102.42 672.879 2100.68 672.629V672.629C2098.94 672.379 2097.33 673.587 2097.08 675.327L2088.67 733.806L2094.97 734.712L2103.38 676.233Z" fill="#E05D19"/>
<path d="M2073.5 659.142C2073.5 657.384 2072.07 655.957 2070.31 655.955V655.955C2068.56 655.954 2067.13 657.378 2067.13 659.137L2067.08 718.216L2073.45 718.221L2073.5 659.142Z" fill="#7A6890"/>
<path d="M2109.93 675.389C2110.43 671.908 2108.02 668.68 2104.54 668.179V668.179C2101.06 667.679 2097.83 670.095 2097.33 673.576L2095.52 686.183L2108.12 687.995L2109.93 675.389Z" fill="#2D2E5C"/>
<path d="M2079.87 657.379C2079.87 653.862 2077.02 651.008 2073.5 651.005V651.005C2069.99 651.002 2067.13 653.851 2067.13 657.368L2067.12 670.103L2079.85 670.114L2079.87 657.379Z" fill="#FDF9F8"/>
<rect width="16.9809" height="88.8323" rx="1.41507" transform="matrix(-0.986438 0.164133 0.164133 0.986438 2051.69 671.826)" fill="#38386E"/>
<path d="M2041.45 679.267C2041.38 678.882 2041.02 678.622 2040.63 678.686L2035.75 679.499L2035.98 680.894L2040.87 680.082C2041.25 680.017 2041.51 679.653 2041.45 679.267V679.267Z" fill="white"/>
<path d="M2044.24 696.018C2044.17 695.633 2043.81 695.372 2043.42 695.436L2038.54 696.249L2038.77 697.645L2043.65 696.832C2044.04 696.768 2044.3 696.404 2044.24 696.018V696.018Z" fill="white"/>
<path d="M2047.02 712.769C2046.96 712.383 2046.59 712.123 2046.21 712.187L2041.32 713L2041.55 714.396L2046.44 713.583C2046.83 713.519 2047.09 713.154 2047.02 712.769V712.769Z" fill="white"/>
<path d="M2049.81 729.519C2049.75 729.134 2049.38 728.873 2049 728.938L2044.11 729.75L2044.34 731.146L2049.23 730.333C2049.61 730.269 2049.87 729.905 2049.81 729.519V729.519Z" fill="white"/>
<path d="M2052.6 746.27C2052.53 745.884 2052.17 745.624 2051.78 745.688L2046.9 746.501L2047.13 747.897L2052.01 747.084C2052.4 747.02 2052.66 746.655 2052.6 746.27V746.27Z" fill="white"/>
<path d="M2042.84 687.643C2042.78 687.257 2042.41 686.997 2042.03 687.061L2037.14 687.874L2037.37 689.27L2042.26 688.457C2042.65 688.393 2042.91 688.028 2042.84 687.643V687.643Z" fill="white"/>
<path d="M2045.63 704.393C2045.56 704.008 2045.2 703.747 2044.81 703.812L2039.93 704.625L2040.16 706.02L2045.05 705.207C2045.43 705.143 2045.69 704.779 2045.63 704.393V704.393Z" fill="white"/>
<path d="M2048.42 721.144C2048.35 720.758 2047.99 720.498 2047.6 720.562L2042.72 721.375L2042.95 722.771L2047.83 721.958C2048.22 721.894 2048.48 721.529 2048.42 721.144V721.144Z" fill="white"/>
<path d="M2051.2 737.895C2051.14 737.509 2050.77 737.249 2050.39 737.313L2045.5 738.126L2045.74 739.522L2050.62 738.709C2051.01 738.645 2051.27 738.28 2051.2 737.895V737.895Z" fill="white"/>
<path d="M2053.99 754.645C2053.93 754.26 2053.56 753.999 2053.18 754.063L2048.29 754.876L2048.52 756.272L2053.41 755.459C2053.79 755.395 2054.05 755.031 2053.99 754.645V754.645Z" fill="white"/>
<path d="M2112.37 720.397C2112.53 718.738 2111.22 717.306 2109.55 717.306H2035.1C2033.44 717.306 2032.13 718.738 2032.29 720.397L2038.48 787.297C2038.82 790.937 2041.87 793.72 2045.53 793.72H2099.13C2102.79 793.72 2105.84 790.937 2106.18 787.297L2112.37 720.397Z" fill="#FDF9F8"/>
<path d="M2108.05 767.136L2110.06 745.417H2034.6L2036.61 767.136H2108.05Z" fill="#ED5767"/>
<path d="M406 1245.5C406 1256.27 339.738 1265 258 1265C176.262 1265 110 1256.27 110 1245.5C110 1234.73 176.262 1226 258 1226C339.738 1226 406 1234.73 406 1245.5Z" fill="#FFAD97"/>
<path fill-rule="evenodd" clip-rule="evenodd" d="M323.772 1024.14C329.258 985.135 345.976 894.492 368.955 843.96L344.44 1026.91L323.772 1024.14ZM365.108 1029.68C370.084 990.605 377.82 898.759 368.955 843.96L344.44 1026.91L365.108 1029.68Z" fill="#4D7751"/>
<path fill-rule="evenodd" clip-rule="evenodd" d="M347.43 1085.65C346.991 1018.08 339.272 860.153 311.903 769C284.321 860.233 276.542 1018.3 276.1 1085.93H311.903V1085.65H347.43Z" fill="#648C69"/>
<path fill-rule="evenodd" clip-rule="evenodd" d="M156.207 1064.44C151.345 1018.7 144.608 911.261 156.558 847.463L180.765 1061.66L156.207 1064.44ZM205.323 1058.89C199.854 1013.21 182.445 906.986 156.558 847.464L180.765 1061.66L205.323 1058.89Z" fill="#4D7751"/>
<path fill-rule="evenodd" clip-rule="evenodd" d="M219.412 1090.41L188.467 1092.46C184.683 1029.55 181.669 882.15 199.887 795.749L199.887 795.749C229.158 878.93 245.559 1025.32 250.1 1088.11L219.395 1090.15L219.412 1090.41Z" fill="#648C69"/>
<path fill-rule="evenodd" clip-rule="evenodd" d="M261.702 793.714C261.702 793.714 261.702 793.714 261.702 793.714V793.715C287.286 877.099 294.502 1021.57 294.912 1083.38L261.702 1083.38H228.493C228.903 1021.57 236.118 877.099 261.702 793.715V793.714C261.702 793.714 261.702 793.714 261.702 793.714Z" fill="#4D7751"/>
<path d="M378.361 1022.4C378.361 1017.73 374.579 1013.95 369.914 1013.95H151.709C147.044 1013.95 143.263 1017.73 143.263 1022.4V1196.96C143.263 1226.51 167.213 1250.46 196.758 1250.46H324.865C354.41 1250.46 378.361 1226.51 378.361 1196.96V1022.4Z" fill="#FF6D3A"/>
<path d="M143.263 1066.04V1071.67C167.365 1071.67 186.904 1052.13 186.904 1028.03C186.904 1023.1 186.087 1018.37 184.583 1013.95H178.58C180.317 1018.31 181.272 1023.06 181.272 1028.03C181.272 1049.02 164.255 1066.04 143.263 1066.04Z" fill="white"/>
<path d="M145.514 1212.37C148.868 1205.95 153.004 1198.43 157.963 1189.87C169.654 1169.7 191.476 1156.14 216.467 1156.14C253.786 1156.14 284.04 1186.39 284.04 1223.71C284.04 1232.67 282.297 1241.22 279.133 1249.04C276.984 1249.38 274.815 1249.65 272.629 1249.87C276.338 1241.92 278.409 1233.06 278.409 1223.71C278.409 1189.5 250.676 1161.77 216.467 1161.77C192.413 1161.77 171.562 1175.48 161.301 1195.51C156.317 1205.24 151.967 1213.26 148.299 1219.65C147.201 1217.31 146.268 1214.88 145.514 1212.37Z" fill="white"/>
<path d="M378.361 1158.57C377.5 1158.64 376.559 1158.67 375.529 1158.67C373.683 1158.86 371.81 1158.95 369.914 1158.95C339.592 1158.95 315.011 1134.37 315.011 1104.05C315.011 1073.73 339.592 1049.15 369.914 1049.15C372.787 1049.15 375.607 1049.37 378.361 1049.79V1055.5C375.616 1055.03 372.794 1054.78 369.914 1054.78C342.702 1054.78 320.642 1076.84 320.642 1104.05C320.642 1131.26 342.702 1153.32 369.914 1153.32C371.023 1153.32 374.654 1152.74 378.361 1152.09V1158.57Z" fill="white"/>
<path d="M2120.53 299L2180.44 214.844H1802.67L1762 299H2120.53Z" fill="#AEB5EB"/>
<path d="M1871.29 212.507V252.247L1894.08 218.935L1890.57 212.507H1871.29Z" fill="#634782"/>
<path d="M2102.13 212.507V252.247L2124.92 218.935L2121.42 212.507H2102.13Z" fill="#634782"/>
<path d="M1871.29 252.247L1890.71 212.507L1907.52 212.507L1888.82 252.247L1871.29 252.247Z" fill="#7A6890"/>
<path d="M2102.13 252.247L2121.56 212.507L2138.36 212.507L2119.66 252.247L2102.13 252.247Z" fill="#7A6890"/>
<rect x="1800.57" y="205.494" width="379.87" height="18.7013" rx="9.35065" fill="#7A6890"/>
<path d="M1839 149.231C1839 144.207 1843.07 140.134 1848.1 140.134H1917.23C1922.25 140.134 1926.33 144.207 1926.33 149.231V172.882C1926.33 190.968 1911.67 205.63 1893.58 205.63H1871.75C1853.66 205.63 1839 190.968 1839 172.882V149.231Z" fill="white"/>
<path d="M1889.03 109.206H1909.95V115.573C1909.95 119.09 1907.1 121.941 1903.59 121.941H1889.03V109.206Z" fill="#7BA681"/>
<path d="M1899.95 99.6543C1899.95 96.8911 1902.19 94.6511 1904.95 94.6511C1907.71 94.6511 1909.95 96.8911 1909.95 99.6543V109.206H1899.95V99.6543Z" fill="#7BA681"/>
<path d="M1873.57 118.302H1852.65V124.67C1852.65 128.187 1855.5 131.038 1859.01 131.038H1873.57V118.302Z" fill="#7BA681"/>
<path d="M1862.65 108.751C1862.65 105.988 1860.41 103.748 1857.65 103.748C1854.89 103.748 1852.65 105.988 1852.65 108.751V118.302H1862.65V108.751Z" fill="#7BA681"/>
<path d="M1871.75 81.9159C1871.75 75.8872 1876.64 71 1882.66 71V71C1888.69 71 1893.58 75.8872 1893.58 81.9159V140.134H1871.75V81.9159Z" fill="#658D6B"/>
<rect x="1839" y="156.508" width="87.3274" height="2.72898" fill="#38386E"/>
<path d="M1973.56 138.87H2027.32L2050.7 205.493H1996.94L1973.56 138.87Z" fill="white"/>
<path d="M1980.57 144.714H2024.56L2043.69 199.649H1999.7L1980.57 144.714Z" fill="#C6CAED"/>
<path d="M1957.19 205.493L1981.23 177.441L1992.26 205.493H1957.19Z" fill="#634782"/>
<path d="M1968.88 152.195L1973.56 138.87L1996.94 205.493H1987.58L1968.88 152.195Z" fill="#AC9BC0"/>
<path d="M2108.6 99.1298H2079.38V113.697C2079.38 117.271 2076.49 120.169 2072.91 120.169V120.169C2065.83 120.169 2060.37 126.423 2061.33 133.443L2071.2 205.493H2115.62L2125.49 133.443C2126.45 126.423 2120.99 120.169 2113.91 120.169V120.169C2110.98 120.169 2108.6 117.795 2108.6 114.866V99.1298Z" fill="#FF6D3A"/>
<rect x="2075.25" y="93.2856" width="37.4026" height="9.35065" rx="4.67532" fill="white"/>
<path d="M1845 1255C1845 1268.81 1536.97 1280 1157 1280C777.028 1280 469 1268.81 469 1255C469 1241.19 777.028 1230 1157 1230C1536.97 1230 1845 1241.19 1845 1255Z" fill="#FFAD97"/>
<path d="M620.844 604.045C620.844 563.151 653.995 530 694.889 530H1637.11C1678 530 1711.16 563.151 1711.16 604.045V943.726H620.844V604.045Z" fill="#333461"/>
<path d="M692.155 671.326C690.865 665.95 695.707 661.108 701.083 662.398L735.614 670.685H927.205L959.445 662.625C964.917 661.257 969.849 666.266 968.395 671.717L960.525 701.229V943.726H700.442V705.857L692.155 671.326Z" fill="#F3F3F3"/>
<path fill-rule="evenodd" clip-rule="evenodd" d="M924.19 670.685V849.147C924.19 876.762 901.804 899.147 874.19 899.147H700.442V705.857L692.155 671.326C690.865 665.95 695.707 661.108 701.083 662.398L735.614 670.685H924.19Z" fill="white"/>
<path d="M1042.94 671.326C1041.65 665.95 1046.5 661.108 1051.87 662.398L1086.4 670.685H1277.99L1310.23 662.625C1315.71 661.257 1320.64 666.266 1319.18 671.717L1311.31 701.229V943.726H1051.23V705.857L1042.94 671.326Z" fill="#F3F3F3"/>
<path d="M1391.88 671.326C1390.59 665.95 1395.43 661.108 1400.81 662.398L1435.34 670.685H1626.93L1659.17 662.625C1664.64 661.257 1669.57 666.266 1668.12 671.717L1660.25 701.229V943.726H1400.17V705.857L1391.88 671.326Z" fill="#F3F3F3"/>
<path d="M1400.17 896.147V705.857L1391.88 671.326C1390.59 665.95 1395.43 661.108 1400.81 662.398L1435.34 670.685H1621.19V846.147C1621.19 873.762 1598.8 896.147 1571.19 896.147H1400.17Z" fill="white"/>
<path d="M702.357 700.255C740.564 706.551 814.493 863.653 846.681 941.417C707.605 983.54 676.116 791.906 657.223 751.172C638.33 710.439 654.599 692.386 702.357 700.255Z" fill="#AB6CB3"/>
<path d="M655.183 707.066C663.002 698.784 678.872 696.386 702.357 700.255C736.358 705.858 798.652 830.897 834.639 913.164C729.605 933.599 691.156 813.528 670.711 749.68C666.525 736.606 663.094 725.889 660 719.219C658.003 714.913 656.398 710.861 655.183 707.066Z" fill="#C481CD"/>
<path d="M1632.42 700.255C1594.21 706.551 1520.28 863.653 1488.1 941.417C1627.17 983.54 1658.66 791.906 1677.55 751.172C1696.45 710.439 1680.18 692.386 1632.42 700.255Z" fill="#AB6CB3"/>
<path fill-rule="evenodd" clip-rule="evenodd" d="M1663.1 699.297C1655.02 697.919 1644.78 698.219 1632.42 700.255C1598.12 705.907 1535.02 833.12 1499.19 915.337C1591.05 919.901 1626.29 809.836 1645.55 749.68C1649.74 736.606 1653.17 725.889 1656.27 719.219C1659.7 711.824 1661.97 705.177 1663.1 699.297Z" fill="#C481CD"/>
<path d="M1597.31 790.083C1597.31 765.035 1617.62 744.73 1642.66 744.73H1778.72C1804.28 744.73 1825 765.45 1825 791.008V1137.17C1825 1162.73 1804.28 1183.45 1778.72 1183.45H1597.31V790.083Z" fill="#353667"/>
<path d="M1761.58 744.73C1763.68 750.021 1764.84 755.791 1764.84 761.832V1107.99C1764.84 1133.55 1744.12 1154.27 1718.56 1154.27H1597.31V790.083C1597.31 765.035 1617.62 744.73 1642.66 744.73H1761.58Z" fill="#40416F"/>
<path d="M734.688 790.083C734.688 765.035 714.383 744.73 689.336 744.73H553.278C527.719 744.73 507 765.45 507 791.008V1137.17C507 1162.73 527.719 1183.45 553.278 1183.45H734.688V790.083Z" fill="#353667"/>
<path d="M510.262 1154.27H628.249C653.807 1154.27 674.527 1133.55 674.527 1107.99V761.832C674.527 755.791 673.369 750.021 671.264 744.73H553.278C527.719 744.73 507 765.45 507 791.008V1137.17C507 1143.21 508.157 1148.98 510.262 1154.27Z" fill="#40416F"/>
<rect x="734.688" y="1021.91" width="862.624" height="161.973" fill="#636390"/>
<rect width="862.624" height="79.5983" transform="matrix(1 0 0 -1 734.688 1021.91)" fill="#636390"/>
<rect width="862.624" height="29.618" transform="matrix(1 0 0 -1 734.688 1183.89)" fill="#595992"/>
<path d="M573 1184H675L647.665 1244.14C646.042 1247.71 642.482 1250 638.561 1250H583C577.477 1250 573 1245.52 573 1240V1184Z" fill="white"/>
<path d="M1762 1184H1660L1687.34 1244.14C1688.96 1247.71 1692.52 1250 1696.44 1250H1752C1757.52 1250 1762 1245.52 1762 1240V1184Z" fill="white"/>
<path d="M1674 1481C1674 1490.94 1636.62 1499 1590.5 1499C1544.38 1499 1507 1490.94 1507 1481C1507 1471.06 1544.38 1463 1590.5 1463C1636.62 1463 1674 1471.06 1674 1481Z" fill="#685583"/>
<path d="M1607.23 1216.25H1574.24V1234.08C1574.24 1237.24 1572.23 1240.02 1569.39 1241.4C1553.17 1249.32 1542 1265.97 1542 1285.23V1473.89C1542 1478.86 1546.03 1482.88 1551 1482.88H1630.47C1635.44 1482.88 1639.47 1478.86 1639.47 1473.89V1285.23C1639.47 1265.97 1628.3 1249.32 1612.08 1241.4C1609.24 1240.02 1607.23 1237.24 1607.23 1234.08V1216.25Z" fill="white"/>
<rect width="35.9889" height="23.9926" rx="2.99907" transform="matrix(1 0 0 -1 1572.74 1231.99)" fill="#3191CD"/>
<rect x="1542" y="1302.47" width="97.4698" height="92.9712" fill="#3191CD"/>
<rect x="1542" y="1309.22" width="97.4698" height="79.4754" fill="#4CD3E1"/>
<rect x="132" y="124" width="342" height="401.923" rx="14.6154" fill="#7A6991"/>
<rect x="156.846" y="153.231" width="292.308" height="343.462" rx="14.6154" fill="#C6CAED"/>
<path d="M156.846 403.804V392.903C159.621 384.14 163.388 375.062 168.364 366.313C181.186 343.771 202.078 323.349 234.727 316.226C254.888 311.827 274.032 309.172 291.983 306.785C293.319 306.607 294.649 306.431 295.971 306.256C312.438 304.074 327.845 302.033 342.155 298.96C373.014 292.335 398.555 280.958 417.996 253.238C430.313 235.674 440.703 223.915 449.154 216.242V220.233C441.273 227.724 431.679 238.817 420.389 254.916C400.368 283.465 374.025 295.107 342.768 301.818C328.339 304.916 312.818 306.973 296.383 309.15L296.354 309.154C295.031 309.329 293.703 309.505 292.368 309.683C274.42 312.069 255.382 314.711 235.35 319.082C203.691 325.989 183.417 345.76 170.905 367.758C164.106 379.712 159.612 392.306 156.846 403.804Z" fill="white"/>
<path d="M156.873 482.967C156.855 482.673 156.846 482.376 156.846 482.077V472.061C160.138 461.545 164.828 450.544 171.273 439.955C186.664 414.668 212.075 391.731 252.282 383.453C262.743 381.299 273.001 379.26 283.014 377.27L283.02 377.269C320.652 369.789 354.84 362.993 383.466 353.355C411.579 343.89 434.105 331.751 449.154 313.711V318.175C433.665 335.378 411.393 347.037 384.399 356.126C355.577 365.829 321.14 372.674 283.478 380.159C273.488 382.145 263.271 384.175 252.872 386.316C213.571 394.407 188.802 416.778 173.77 441.475C165.367 455.281 160.009 469.811 156.873 482.967Z" fill="white"/>
<path d="M232.949 496.692H229.795C238.677 474.046 265.248 441.923 326.059 428.037C349.31 422.728 367.526 419.753 382.222 417.444C383.389 417.261 384.534 417.082 385.656 416.906L385.692 416.901C398.714 414.863 408.759 413.291 417.145 410.884C426.199 408.284 433.244 404.727 439.871 398.588C442.991 395.697 446.034 392.22 449.154 387.974V392.786C446.74 395.815 444.331 398.441 441.857 400.732C434.828 407.244 427.349 410.995 417.951 413.693C409.38 416.154 399.151 417.754 386.206 419.779L386.152 419.787C385.014 419.965 383.855 420.147 382.675 420.332C368.003 422.637 349.863 425.599 326.71 430.886C267.67 444.368 241.859 475.099 232.949 496.692Z" fill="white"/>
<circle cx="215.308" cy="208.769" r="27.7692" fill="white"/>
<path d="M371 1481.5C371 1492.27 289.964 1501 190 1501C90.0365 1501 9 1492.27 9 1481.5C9 1470.73 90.0365 1462 190 1462C289.964 1462 371 1470.73 371 1481.5Z" fill="#FFAD97"/>
<rect width="311.66" height="168.225" rx="17.7079" transform="matrix(-1 0 0 1 343.66 1314.57)" fill="#595F75"/>
<circle r="48.6968" transform="matrix(-1 0 0 1 247.152 1403.99)" fill="#37383A"/>
<circle r="27.4473" transform="matrix(-1 0 0 1 247.151 1403.99)" fill="#F9FFFF"/>
<circle r="11.5102" transform="matrix(-1 0 0 1 136.477 1452.69)" fill="#C4C4C4"/>
<circle r="11.5102" transform="matrix(-1 0 0 1 93.0924 1452.69)" fill="#C4C4C4"/>
<rect width="100.935" height="61.9778" rx="3.54159" transform="matrix(-1 0 0 1 172.778 1355.3)" fill="#F9FFFF"/>
<path d="M140.938 1372.12C140.919 1371.62 140.513 1371.23 140.019 1371.23V1371.23C139.524 1371.23 139.118 1371.62 139.099 1372.12L137.362 1417.27H142.675L140.938 1372.12Z" fill="#37383A"/>
<path d="M132.05 1306.6C132.05 1304.64 130.464 1303.06 128.508 1303.06H75.3847C73.4287 1303.06 71.8431 1304.64 71.8431 1306.6V1314.57H132.05V1306.6Z" fill="#37383A"/>
<path d="M105.553 1067.54C105.517 1065.57 103.913 1064 101.946 1064V1064C99.9797 1064 98.3755 1065.57 98.3391 1067.54L93.9777 1303.06H109.915L105.553 1067.54Z" fill="#595F75"/>
<path d="M1290.04 745.948C1285.53 692.251 1278.76 692.702 1276.96 690.897L1036.9 695.41C1019 705.077 987.781 885.693 974.064 976.993C973.882 978.202 974.826 979.238 976.049 979.238H1121.43C1122.39 979.238 1123.22 978.556 1123.4 977.614L1149.65 840.782C1149.85 839.703 1151.4 839.698 1151.61 840.776L1178.72 977.626C1178.91 978.563 1179.73 979.238 1180.68 979.238H1333.69C1334.91 979.238 1335.85 978.208 1335.67 977.004C1326.6 916.188 1293.61 788.379 1290.04 745.948Z" fill="#59423A"/>
<path d="M1150 840.182V838.5L1100.72 979.238H1121.43C1122.39 979.238 1123.22 978.556 1123.4 977.614L1149.65 840.782C1149.7 840.517 1149.83 840.317 1150 840.182Z" fill="#432D26"/>
<path d="M1346.9 396.691C1332.1 378.642 1300.12 364.503 1285.98 359.69L1256.65 465.73C1280.87 497.166 1386.97 569.876 1435.34 555.075C1483.71 540.275 1475.95 400.602 1466.03 332.616C1482.27 317.815 1484.23 277.414 1483.17 259.064H1419.55V249.137C1421.35 238.307 1411.88 225.672 1409.17 231.087C1406.46 236.502 1398.79 245.978 1400.6 278.467C1402.04 304.458 1412.63 320.883 1419.55 325.847L1406.24 463.423C1406.15 464.296 1405.07 464.652 1404.49 463.991C1390.29 447.718 1361.17 414.094 1346.9 396.691Z" fill="#EDAD92"/>
<path d="M1388.87 446.005L1409.5 506.5L1406.58 459.829L1406.24 463.423C1406.15 464.296 1405.07 464.652 1404.49 463.991C1400.32 459.21 1394.86 452.93 1388.87 446.005Z" fill="#E09E83"/>
<path d="M1250.79 166.561C1252.57 179.736 1240.74 178.48 1234.35 176.134C1234.18 176.07 1234 176.054 1233.81 176.088L1104.39 200.355C1104.22 200.387 1104.04 200.372 1103.88 200.317C1068.9 188.447 1074.12 170.346 1081.69 161.971C1082.1 161.523 1082.02 160.795 1081.55 160.421C1049.66 135.211 1084.41 124.49 1107.43 122.052C1108.19 121.972 1108.6 121.117 1108.22 120.458C1105.65 115.92 1102.89 107.915 1107.74 103.387C1129.8 84.4348 1164.85 101.803 1181.72 114.279C1182.48 114.843 1183.59 114.129 1183.44 113.192C1182.32 106.153 1182.83 96.7546 1191.67 100.229C1219.17 110.099 1227.68 134.831 1228.62 146.771C1228.66 147.258 1229.03 147.647 1229.51 147.72C1236.38 148.766 1249.05 153.744 1250.79 166.561Z" fill="black"/>
<path d="M1232.27 228.274L1226.98 189.49C1226.92 189.015 1226.52 188.652 1226.05 188.627L1194.53 186.923C1193.96 186.892 1193.48 187.348 1193.48 187.922V223.221C1193.48 223.35 1193.5 223.478 1193.55 223.597L1212.28 269.773C1212.56 270.456 1213.46 270.612 1213.94 270.055C1227.14 254.807 1231.66 236.169 1232.28 228.482C1232.28 228.411 1232.28 228.345 1232.27 228.274Z" fill="black"/>
<path d="M1297.72 364.202L1218.75 320.883L1126.25 329.457L1055.4 358.787C1060.82 407.16 1042.32 471.596 1029.23 495.963C1040.06 561.663 1042.77 658.108 1033.74 698.117C1171.28 727.357 1255.6 707.593 1280.57 694.056C1279.85 638.103 1283.28 538.68 1290.5 495.963C1260.17 445.786 1285.08 387.817 1297.72 364.202Z" fill="#FE6E39"/>
<path d="M1003.06 392.179C1017.86 374.129 1049.84 359.991 1063.97 355.177L1047.73 474.755C1023.51 506.191 962.988 565.363 914.615 550.563C866.243 535.762 874.004 396.09 883.931 328.103C867.687 313.303 865.731 272.902 866.784 254.552H930.409V244.624C928.604 233.795 938.08 221.16 940.787 226.575C943.494 231.99 951.165 241.466 949.361 273.955C947.917 299.946 937.328 316.371 930.409 321.335L943.722 458.911C943.807 459.784 944.888 460.139 945.464 459.479C959.666 443.206 988.787 409.582 1003.06 392.179Z" fill="#EDAD92"/>
<path d="M943.92 459.425C944.277 459.894 945.02 459.988 945.464 459.479C952.456 451.467 963.065 439.25 973.737 426.833L942.5 496L943.92 459.425Z" fill="#E09E83"/>
<path d="M1170.92 374.129C1208.59 374.784 1234.74 350.966 1245.67 335.649L1218.75 320.883L1126.25 329.457L1108.97 336.607C1120.07 354.045 1140.42 373.599 1170.92 374.129Z" fill="black"/>
<path d="M1070.68 352.463L1055.4 358.787C1060.82 407.16 1042.32 471.596 1029.23 495.963C1030.22 501.988 1031.15 508.271 1032 514.745C1073.58 449.735 1076.03 385.401 1070.68 352.463Z" fill="black"/>
<path d="M1280.49 670.586C1280.45 678.984 1280.48 686.878 1280.57 694.056C1255.6 707.593 1171.28 727.357 1033.74 698.117C1035.34 691.03 1036.57 682.171 1037.45 672.027C1120.77 694.505 1221.95 686.226 1280.49 670.586Z" fill="black"/>
<path d="M1282.57 355.894C1262.83 387.216 1239.29 452.819 1286.93 518.112C1288.23 509.719 1289.44 502.231 1290.5 495.963C1260.17 445.786 1285.08 387.817 1297.72 364.202L1282.57 355.894Z" fill="black"/>
<path d="M1216.49 318.349V238.758L1149.26 292.907V318.311C1149.26 318.504 1149.15 318.68 1148.97 318.763L1122.64 331.262C1127.6 342.994 1151.06 360.141 1167.31 360.141C1204.85 361.224 1227.47 338.933 1233.19 329.006L1216.73 318.774C1216.58 318.683 1216.49 318.522 1216.49 318.349Z" fill="#EDAD92"/>
<path d="M1234.54 197.245H1101.88V177.149C1101.88 176.555 1102.39 176.093 1102.99 176.112C1110.4 176.348 1122.12 171.765 1131.29 167.379C1132.38 166.855 1134.75 169.708 1134.34 170.851C1133.41 173.469 1133.7 176.054 1136.62 177.841C1148.57 183.977 1168.15 174.683 1179.14 167.594C1180.03 167.022 1181.24 168.077 1180.83 169.053C1173.31 187.212 1192.87 181.545 1204.31 176.036H1233.54C1234.09 176.036 1234.54 176.484 1234.54 177.036V197.245Z" fill="#FE6E39"/>
<path d="M1216.49 262.463C1216.29 262.966 1216.09 263.476 1215.89 263.994C1207.46 285.308 1194.06 319.186 1153.19 316.65C1151.84 316.567 1150.54 316.431 1149.26 316.246V292.907L1216.49 238.758V262.463Z" fill="#A26956"/>
<path d="M1204.58 196.704L1206.11 220.418C1206.18 221.473 1207.62 221.715 1208.03 220.741L1218.11 196.704C1225.17 196.102 1241.55 186.33 1239.29 208.882C1237.18 230.08 1225.32 239.552 1218.11 239.552C1209.69 259.849 1197.82 300.505 1153.19 297.736C1106.66 294.849 1099.54 229.178 1101.79 196.704H1204.58Z" fill="#EDAD92"/>
<path d="M1223.26 200.403C1228.53 197.997 1237.7 197.786 1232.29 216.197C1230.93 220.709 1226.42 227.026 1223.26 230.185" stroke="#A26956" stroke-width="2" stroke-linecap="round"/>
<ellipse rx="5.41484" ry="8.57349" transform="matrix(-1 0 0 1 1177.84 228.124)" fill="black"/>
<ellipse rx="5.41484" ry="8.57349" transform="matrix(-1 0 0 1 1126.4 228.124)" fill="black"/>
<path d="M1144.11 246.852L1155.64 219.03C1156.02 218.118 1157.38 218.388 1157.38 219.376V248.234C1157.38 250.228 1155.76 251.844 1153.77 251.844H1147.44C1144.87 251.844 1143.12 249.229 1144.11 246.852Z" fill="#A26956"/>
<path d="M1165.05 267.186C1164 269.442 1159.82 273.865 1151.51 273.504C1143.21 273.143 1139.63 269.142 1138.88 267.186" stroke="black" stroke-width="2" stroke-linecap="round"/>
<path d="M1139.78 207.623C1136.32 204.314 1127.33 199.681 1119.03 207.623" stroke="black" stroke-width="2" stroke-linecap="round"/>
<path d="M1192.58 207.623C1189.12 204.314 1180.12 199.681 1171.82 207.623" stroke="black" stroke-width="2" stroke-linecap="round"/>
<path d="M1174.53 461.218C1166.1 473.101 1138.07 502.1 1093.3 523.037M1149.71 505.439C1143.84 512.659 1129.22 528.723 1117.67 535.221M1041.41 606.516C1043.82 616.443 1054.86 642.435 1079.77 666.982M1267.48 578.088C1264.62 590.272 1250.79 618.79 1218.3 635.395" stroke="black" stroke-width="0.902473"/>
<path d="M1129.86 409.777V425.119H1088.34V409.777H1129.86Z" fill="white"/>
<path d="M1468.09 332.748L1420.29 325.638C1417.98 325.294 1415.87 326.997 1415.71 329.329L1415 340L1471.5 349.5V336.705C1471.5 334.723 1470.05 333.04 1468.09 332.748Z" fill="#FE6E39"/>
<path d="M882.411 328.748L930.209 321.638C932.52 321.294 934.633 322.997 934.788 325.329L935.5 336L879 345.5V332.705C879 330.723 880.451 329.04 882.411 328.748Z" fill="#FE6E39"/>
<rect width="286.084" height="23.4643" rx="7.21978" transform="matrix(-1 0 0 1 1049.08 255.454)" fill="#8D8DB9"/>
<rect x="1300.87" y="259.966" width="286.084" height="23.4643" rx="7.21978" fill="#8D8DB9"/>
<path d="M1471.5 348.255L1415 339.5L1413.84 352.889C1413.75 353.927 1414.47 354.86 1415.5 355.034L1469.17 364.106C1470.39 364.312 1471.5 363.371 1471.5 362.134V348.255Z" fill="black"/>
<path d="M879 344.255L935.5 335.5L936.658 348.889C936.748 349.927 936.026 350.86 934.999 351.034L881.333 360.106C880.113 360.312 879 359.371 879 358.134V344.255Z" fill="black"/>
<path d="M933.567 252.747C931.04 243 918.225 240.112 910.554 240.112C895.212 239.059 865.431 243.18 865.431 250.039C863.626 299.224 880.321 305.541 907.847 304.639C935.372 303.736 936.726 264.93 933.567 252.747Z" fill="#E09E83"/>
<path d="M918.225 262.674L913.713 303.736M900.176 262.674L897.468 303.736M883.48 262.674V301.48" stroke="black" stroke-width="2" stroke-linecap="round"/>
<rect width="27.0742" height="113.712" rx="3.60989" transform="matrix(-1 0 0 1 998.545 210.331)" fill="#353667"/>
<path d="M1416.39 257.259C1418.92 247.512 1431.73 244.624 1439.4 244.624C1454.75 243.572 1484.53 247.693 1484.53 254.552C1486.33 303.736 1469.64 310.054 1442.11 309.151C1414.59 308.249 1413.23 269.442 1416.39 257.259Z" fill="#E09E83"/>
<rect x="1351.41" y="214.843" width="27.0742" height="113.712" rx="3.60989" fill="#353667"/>
<path d="M1431.73 267.186L1436.24 308.249M1449.78 267.186L1452.49 308.249M1466.48 267.186V305.993" stroke="black" stroke-width="2" stroke-linecap="round"/>
<rect x="813.538" y="210.331" width="27.0742" height="113.712" rx="3.60989" fill="#353667"/>
<rect width="27.0742" height="113.712" rx="3.60989" transform="matrix(-1 0 0 1 1536.42 214.843)" fill="#353667"/>
<rect width="21.6594" height="90.2473" rx="3.60989" transform="matrix(-1 0 0 1 1020.2 222.063)" fill="#40416F"/>
<rect x="1329.75" y="226.575" width="21.6594" height="90.2473" rx="3.60989" fill="#40416F"/>
<rect x="791.879" y="222.063" width="21.6594" height="90.2473" rx="3.60989" fill="#40416F"/>
<rect width="21.6594" height="90.2473" rx="3.60989" transform="matrix(-1 0 0 1 1558.08 226.575)" fill="#40416F"/>
<rect width="18.0495" height="75.8077" rx="3.60989" transform="matrix(-1 0 0 1 1038.25 229.282)" fill="#636390"/>
<rect x="1311.7" y="233.795" width="18.0495" height="75.8077" rx="3.60989" fill="#636390"/>
<rect x="773.83" y="229.282" width="18.0495" height="75.8077" rx="3.60989" fill="#636390"/>
<rect width="18.0495" height="75.8077" rx="3.60989" transform="matrix(-1 0 0 1 1576.13 233.795)" fill="#636390"/>
<path d="M1315.22 1043.08L1310.84 979H1203.89L1211.43 1043.08L1244.02 1395.9H1316.22L1315.22 1043.08Z" fill="#E09E83"/>
<path d="M1316.19 1385.65L1298.05 1395.9H1297C1297.92 1214.99 1285.69 1048.05 1271.93 979H1310.84L1315.22 1043.08L1316.19 1385.65Z" fill="#DC987C"/>
<path d="M992.228 1075.08L997.289 979H1104.23L1096.01 1075.08L1058.11 1395.9H985.911L992.228 1075.08Z" fill="#E09E83"/>
<path d="M1077.76 979L1075.01 992.5L1035.9 1395.9H1058.11L1096.01 1075.08L1104.23 979H1077.76Z" fill="#D68C6D"/>
<path d="M1479 1462.5C1479 1482.66 1323.42 1499 1131.5 1499C939.581 1499 784 1482.66 784 1462.5C784 1442.34 939.581 1426 1131.5 1426C1323.42 1426 1479 1442.34 1479 1462.5Z" fill="#685583"/>
<path d="M1009.1 1385.91L1038.56 1390.41C1076.93 1370.88 1078.71 1424.36 1071.93 1459.1C1071.14 1463.17 1067.5 1466 1063.35 1466H859.825C854.539 1466 850.328 1461.46 850.717 1456.19C851.968 1439.26 853.97 1435.11 887.093 1420.1C925.824 1402.55 969.828 1367.46 987.283 1367.01C1001.25 1366.65 1007.65 1379.46 1009.1 1385.91Z" fill="white"/>
<path d="M939.858 1390.4C941.028 1389.68 942.19 1388.97 943.341 1388.26L962.789 1408.79C963.548 1409.59 963.514 1410.86 962.712 1411.62C961.91 1412.38 960.644 1412.34 959.885 1411.54L939.858 1390.4Z" fill="#59423A"/>
<path d="M922.636 1400.91C923.81 1400.2 924.981 1399.5 926.146 1398.79L943.784 1417.28C944.546 1418.08 944.516 1419.35 943.717 1420.11C942.918 1420.87 941.652 1420.84 940.889 1420.05L922.636 1400.91Z" fill="#59423A"/>
<path d="M900.955 1413.25C902.176 1412.61 903.398 1411.95 904.621 1411.28L919.267 1426.27C920.039 1427.06 920.024 1428.32 919.235 1429.1C918.445 1429.87 917.178 1429.85 916.406 1429.06L900.955 1413.25Z" fill="#59423A"/>
<path fill-rule="evenodd" clip-rule="evenodd" d="M850.855 1458.57C850.707 1457.8 850.657 1457.01 850.717 1456.19C851.79 1441.67 853.414 1436.55 874.733 1425.93C887.335 1433.91 890.546 1446.82 890.224 1454.11C888.701 1454.11 866.72 1456.68 850.855 1458.57Z" fill="#59423A"/>
<path d="M1242.19 1453.65C1237.26 1409.09 1242.79 1386.16 1256.07 1386.16C1278.39 1360.25 1305.88 1365.24 1313.68 1371.99C1334.98 1388.69 1379.47 1424.72 1387.04 1435.25C1400.99 1464.09 1375.78 1472.7 1362.73 1474.72C1353.02 1476.23 1283.04 1466.04 1249.87 1461.48C1245.82 1460.92 1242.64 1457.71 1242.19 1453.65Z" fill="white"/>
<path d="M1346.06 1398.05C1347.32 1399.09 1348.58 1400.14 1349.83 1401.18C1339.99 1403.52 1325.59 1410.33 1315.7 1426.22C1315.11 1427.16 1313.88 1427.45 1312.94 1426.86C1312.01 1426.28 1311.72 1425.05 1312.3 1424.11C1321.93 1408.64 1335.57 1401.17 1346.06 1398.05Z" fill="#59423A"/>
<path d="M1330.19 1385.12C1331.41 1386.1 1332.65 1387.1 1333.9 1388.12C1330 1389.31 1325.32 1391.13 1320.55 1393.66C1312.98 1397.68 1305.33 1403.44 1300.17 1411.26C1299.56 1412.19 1298.32 1412.44 1297.4 1411.84C1296.48 1411.23 1296.22 1409.99 1296.83 1409.06C1302.47 1400.49 1310.74 1394.34 1318.67 1390.12C1322.68 1388 1326.64 1386.35 1330.19 1385.12Z" fill="#59423A"/>
<path d="M1315.88 1373.72C1317.2 1374.76 1318.59 1375.86 1320.04 1377.01C1312.23 1378.06 1300.16 1382.71 1287.47 1396.52C1286.73 1397.33 1285.46 1397.39 1284.65 1396.64C1283.83 1395.89 1283.78 1394.63 1284.53 1393.81C1295.99 1381.33 1307.27 1375.74 1315.88 1373.72Z" fill="#59423A"/>
<path d="M1073 1452C1072.69 1454.22 1072.34 1456.4 1071.96 1458.5C1071.18 1462.89 1066.87 1466 1061.89 1466H860.571C854.501 1466 849.653 1461.4 850.019 1455.99C850.115 1454.58 850.215 1453.25 850.333 1452H1073Z" fill="black"/>
<path fill-rule="evenodd" clip-rule="evenodd" d="M1369.74 1417.89C1378.26 1425.4 1384.89 1431.74 1387.42 1435.25C1394.24 1449.32 1391.73 1458.58 1385.83 1464.6H1323.34C1330.79 1424.96 1354.29 1416.83 1369.74 1417.89Z" fill="#59423A"/>
<path fill-rule="evenodd" clip-rule="evenodd" d="M1240.98 1440.36C1241.27 1444.55 1241.68 1448.98 1242.2 1453.65C1242.65 1457.71 1245.82 1460.92 1249.88 1461.48C1254.28 1462.08 1259.33 1462.78 1264.8 1463.54C1300.65 1468.53 1354.61 1476.03 1363.05 1474.72C1375.68 1472.77 1399.67 1464.68 1388.74 1438.18C1386.11 1450.7 1369.84 1463.4 1318.38 1456C1280.42 1450.53 1255.9 1444.92 1240.98 1440.36Z" fill="black"/>
<path d="M1330.29 946.297H1172.51L1172.87 948.102H1330.63C1330.52 947.503 1330.4 946.902 1330.29 946.297Z" fill="white"/>
<path d="M1176.09 964.347H1333.29L1333.04 962.542H1175.73L1176.09 964.347Z" fill="white"/>
<path d="M1129.41 946.297H978.814C978.718 946.901 978.622 947.503 978.527 948.102H1129.06L1129.41 946.297Z" fill="white"/>
<path d="M1126.29 962.542H976.267C976.174 963.146 976.081 963.748 975.988 964.347H1125.94L1126.29 962.542Z" fill="white"/>
</svg>
